<svg width="24" height="24" viewBox="0 0 24 24" fill="none" xmlns="http://www.w3.org/2000/svg">
<path d="M7.48359 5.25954C6.33916 5.38744 5.42311 6.29069 5.2907 7.4228C4.93501 10.464 4.93501 13.5362 5.2907 16.5774C5.42311 17.7095 6.33916 18.6127 7.48359 18.7406C10.4604 19.0733 13.54 19.0733 16.5169 18.7406C17.6613 18.6127 18.5773 17.7095 18.7097 16.5774C18.9653 14.3922 19.0373 12.191 18.9256 9.9968C18.9227 9.94014 18.9438 9.88487 18.984 9.84475L20.0227 8.80597C20.143 8.68574 20.3484 8.76092 20.3612 8.93048C20.5572 11.5354 20.5034 14.1545 20.1996 16.7516C19.9847 18.5886 18.5098 20.0272 16.6835 20.2314C13.5959 20.5764 10.4045 20.5764 7.31698 20.2314C5.4906 20.0272 4.0157 18.5886 3.80086 16.7516C3.43162 13.5947 3.43162 10.4055 3.80086 7.24855C4.0157 5.41159 5.4906 3.97294 7.31698 3.76882C10.4045 3.42374 13.5959 3.42374 16.6835 3.76882C17.3267 3.84071 17.9264 4.06574 18.4427 4.40738C18.5443 4.4746 18.5544 4.61744 18.4683 4.70359L17.6654 5.50647C17.5997 5.57214 17.4978 5.58319 17.416 5.53932C17.1426 5.39283 16.8388 5.29551 16.5169 5.25954C13.54 4.92683 10.4604 4.92683 7.48359 5.25954Z" fill="#ab84ff"/>
<path d="M21.0303 6.03034C21.3232 5.73744 21.3232 5.26257 21.0303 4.96968C20.7374 4.67678 20.2626 4.67678 19.9697 4.96968L11.5 13.4393L9.03033 10.9697C8.73744 10.6768 8.26256 10.6768 7.96967 10.9697C7.67678 11.2626 7.67678 11.7374 7.96967 12.0303L10.9697 15.0303C11.2626 15.3232 11.7374 15.3232 12.0303 15.0303L21.0303 6.03034Z" fill="#ab84ff"/>
</svg>
