<svg width="16" height="16" viewBox="0 0 16 16" fill="none" xmlns="http://www.w3.org/2000/svg">
<g clip-path="url(#clip0_77_854)">
<path d="M8.00377 3.89258C5.7351 3.89258 3.89844 5.73124 3.89844 7.99791C3.89844 10.2666 5.7371 12.1032 8.00377 12.1032C10.2724 12.1032 12.1091 10.2646 12.1091 7.99791C12.1091 5.72924 10.2704 3.89258 8.00377 3.89258V3.89258ZM8.00377 10.6626C6.5311 10.6626 5.3391 9.46991 5.3391 7.99791C5.3391 6.52591 6.53177 5.33324 8.00377 5.33324C9.47577 5.33324 10.6684 6.52591 10.6684 7.99791C10.6691 9.46991 9.47644 10.6626 8.00377 10.6626V10.6626Z" fill="#808080"/>
<path d="M11.2988 0.0502578C9.82682 -0.0184089 6.18082 -0.0150756 4.70749 0.0502578C3.41282 0.110924 2.27082 0.423591 1.35015 1.34426C-0.188515 2.88292 0.00815151 4.95626 0.00815151 7.99692C0.00815151 11.1089 -0.165182 13.1343 1.35015 14.6496C2.89482 16.1936 4.99815 15.9916 8.00282 15.9916C11.0855 15.9916 12.1495 15.9936 13.2395 15.5716C14.7215 14.9963 15.8402 13.6716 15.9495 11.2923C16.0188 9.81959 16.0148 6.17426 15.9495 4.70092C15.8175 1.89226 14.3102 0.188924 11.2988 0.0502578V0.0502578ZM13.6288 13.6316C12.6202 14.6403 11.2208 14.5503 7.98349 14.5503C4.65015 14.5503 3.31348 14.5996 2.33815 13.6216C1.21482 12.5036 1.41815 10.7083 1.41815 7.98626C1.41815 4.30292 1.04015 1.65026 4.73682 1.46092C5.58615 1.43092 5.83615 1.42092 7.97415 1.42092L8.00415 1.44092C11.5568 1.44092 14.3442 1.06892 14.5115 4.76492C14.5495 5.60826 14.5582 5.86159 14.5582 7.99626C14.5575 11.2909 14.6202 12.6356 13.6288 13.6316V13.6316Z" fill="#808080"/>
<path d="M12.2718 4.68917C12.8017 4.68917 13.2312 4.25966 13.2312 3.72984C13.2312 3.20002 12.8017 2.77051 12.2718 2.77051C11.742 2.77051 11.3125 3.20002 11.3125 3.72984C11.3125 4.25966 11.742 4.68917 12.2718 4.68917Z" fill="#808080"/>
</g>
<defs>
<clipPath id="clip0_77_854">
<rect width="16" height="16" fill="white"/>
</clipPath>
</defs>
</svg>
