<svg width="32" height="32" viewBox="0 0 32 32" fill="none" xmlns="http://www.w3.org/2000/svg">
<path fill-rule="evenodd" clip-rule="evenodd" d="M8.71353 4.33331C7.93337 4.33331 7.20484 4.72322 6.77208 5.37234L1.98645 12.5508C1.69348 12.9903 1.65844 13.553 1.89464 14.0254C4.51345 19.263 8.15285 23.9242 12.5989 27.7352L14.9333 29.7361C15.547 30.2622 16.4529 30.2622 17.0666 29.7361L19.401 27.7352C23.847 23.9242 27.4865 19.263 30.1053 14.0254C30.3414 13.553 30.3065 12.9903 30.0134 12.5508L25.2278 5.37234C24.795 4.72322 24.0665 4.33331 23.2864 4.33331H8.71353ZM8.43619 6.48174C8.498 6.38902 8.60208 6.33331 8.71353 6.33331H11.8333L9.27979 12.4617C9.22097 12.6029 9.17657 12.7484 9.14665 12.8963C8.20821 12.8264 7.27057 12.7422 6.33405 12.6437L4.45977 12.4464L8.43619 6.48174ZM4.37149 14.4481C6.76269 18.8348 9.92024 22.7618 13.6976 26.0416L9.53029 14.9289C8.39384 14.8508 7.25845 14.752 6.12469 14.6326L4.37149 14.4481ZM11.713 15.0536L16 26.4853L20.2869 15.0536C17.4304 15.1834 14.5696 15.1834 11.713 15.0536ZM22.4697 14.9289L18.3024 26.0416C22.0797 22.7618 25.2372 18.8348 27.6284 14.4481L25.8752 14.6326C24.7414 14.752 23.6061 14.8508 22.4697 14.9289ZM27.5401 12.4464L25.6658 12.6437C24.7293 12.7422 23.7917 12.8264 22.8533 12.8963C22.8233 12.7484 22.7789 12.6029 22.7201 12.4617L20.1666 6.33331H23.2864C23.3978 6.33331 23.502 6.38902 23.5637 6.48175L27.5401 12.4464ZM20.7889 13.0267C17.5984 13.1924 14.4016 13.1924 11.211 13.0267L14 6.33331H18L20.7889 13.0267Z" fill="#56FFE1"/>
</svg>
