<svg width="32" height="32" viewBox="0 0 32 32" fill="none" xmlns="http://www.w3.org/2000/svg">
<path fill-rule="evenodd" clip-rule="evenodd" d="M3.73838 11.1377C3.36486 14.6083 3.38151 18.6109 3.90127 22.0673C4.18887 23.9799 5.74976 25.446 7.67652 25.6136L9.69016 25.7885C13.8889 26.1536 18.1113 26.1536 22.3101 25.7885L24.3237 25.6136C26.2505 25.446 27.8115 23.9799 28.0991 22.0673C28.6188 18.6109 28.6355 14.6085 28.2619 11.1379C28.2136 10.7356 28.1593 10.3338 28.0991 9.93265C27.8115 8.02013 26.2505 6.55393 24.3237 6.38643L22.3101 6.21139C18.1113 5.84641 13.8889 5.84641 9.69016 6.21139L7.67652 6.38643C5.74976 6.55393 4.18887 8.02013 3.90127 9.93265C3.84096 10.3337 3.78667 10.7354 3.73838 11.1377ZM9.86336 8.20389C13.9468 7.84891 18.0535 7.84891 22.1369 8.20389L24.1505 8.37893C25.1563 8.46635 25.9711 9.23171 26.1212 10.23C26.1368 10.3337 26.152 10.4374 26.1668 10.5412L18.7521 14.6605C17.0407 15.6113 14.9596 15.6113 13.2481 14.6605L5.83352 10.5413C5.84827 10.4375 5.86344 10.3337 5.87903 10.23C6.02916 9.23171 6.84395 8.46635 7.84972 8.37893L9.86336 8.20389ZM26.4115 12.6932C26.6701 15.7168 26.5733 18.7633 26.1212 21.7699C25.9711 22.7683 25.1563 23.5336 24.1505 23.6211L22.1369 23.7961C18.0535 24.1511 13.9468 24.1511 9.86336 23.7961L7.84972 23.6211C6.84395 23.5336 6.02916 22.7683 5.87903 21.7699C5.42691 18.7633 5.33016 15.7169 5.58879 12.6932L12.2768 16.4088C14.5924 17.6952 17.4079 17.6952 19.7233 16.4088L26.4115 12.6932Z" fill="#FF84E4"/>
</svg>
