<svg width="32" height="32" viewBox="0 0 32 32" fill="none" xmlns="http://www.w3.org/2000/svg">
<path fill-rule="evenodd" clip-rule="evenodd" d="M13.9816 5.48557C14.8808 3.93587 17.1187 3.93589 18.0179 5.48557L20.7718 10.2314C21.0256 10.6688 21.4643 10.9674 21.9644 11.0429L26.5372 11.7336C28.5306 12.0346 29.2298 14.5514 27.6774 15.8374L24.3455 18.598C23.8779 18.9853 23.658 19.5965 23.7716 20.1932L24.705 25.0944C25.0706 27.0144 23.055 28.5061 21.3256 27.5954L16.7763 25.2001C16.2902 24.9441 15.7094 24.9441 15.2232 25.2001L10.6739 27.5954C8.94455 28.5061 6.92904 27.0144 7.29464 25.0944L8.22795 20.1932C8.34155 19.5965 8.12165 18.9853 7.654 18.598L4.32213 15.8374C2.76975 14.5514 3.46896 12.0346 5.46228 11.7336L10.0351 11.0429C10.5352 10.9674 10.974 10.6688 11.2278 10.2314L13.9816 5.48557ZM16.288 6.48934C16.1596 6.26795 15.8399 6.26795 15.7115 6.48934L12.9577 11.2352C12.3992 12.1975 11.434 12.8543 10.3338 13.0204L5.76097 13.7112C5.47621 13.7541 5.37632 14.1137 5.59809 14.2974L8.92996 17.0578C9.9588 17.9102 10.4426 19.2548 10.1926 20.5672L9.25933 25.4685C9.20711 25.7428 9.49503 25.956 9.74208 25.8258L14.2915 23.4304C15.3607 22.8673 16.6388 22.8673 17.708 23.4304L22.2575 25.8258C22.5046 25.956 22.7924 25.7428 22.7402 25.4685L21.807 20.5672C21.557 19.2548 22.0407 17.9102 23.0696 17.0578L26.4015 14.2974C26.6232 14.1137 26.5234 13.7541 26.2386 13.7112L21.6658 13.0204C20.5655 12.8543 19.6003 12.1975 19.0419 11.2352L16.288 6.48934Z" fill="#8684FF"/>
</svg>
