<svg width="32" height="32" viewBox="0 0 32 32" fill="none" xmlns="http://www.w3.org/2000/svg">
<path fill-rule="evenodd" clip-rule="evenodd" d="M14.0091 2.01074C14.2514 1.73195 14.6276 1.60942 14.9876 1.69207C19.7994 2.79675 22.2315 8.06958 21.6595 12.7871C21.4372 14.621 20.8879 16.0586 20.0791 17.2024C20.0742 17.2095 20.0691 17.2164 20.0642 17.2234C20.2479 17.1331 20.4174 17.0356 20.576 16.9327C21.3652 16.4204 21.9446 15.7444 22.6987 14.8642C22.7899 14.7578 22.8836 14.6484 22.9806 14.536C23.1984 14.2834 23.528 14.1559 23.8591 14.1964C24.1903 14.2368 24.4795 14.4399 24.6302 14.7375C25.2935 16.0484 25.6668 17.5306 25.6668 19.0968C25.6668 24.4356 21.339 28.7635 16.0002 28.7635C10.6614 28.7635 6.3335 24.4356 6.3335 19.0968C6.3335 15.7142 8.07178 12.738 10.6992 11.0121L10.7893 10.9213C10.8356 10.8747 10.8863 10.8327 10.9409 10.7961C12.0953 10.0192 12.9243 9.38383 13.4824 8.63659C14.0096 7.9307 14.3335 7.06962 14.3335 5.76354C14.3335 4.7965 14.155 3.87351 13.8299 3.02414C13.6979 2.67917 13.7667 2.28953 14.0091 2.01074ZM16.2284 4.33443C16.2976 4.80107 16.3335 5.27831 16.3335 5.76354C16.3335 7.45477 15.8966 8.74662 15.0848 9.83342C14.3224 10.8541 13.2672 11.638 12.1397 12.3999L12.0433 12.497C11.9917 12.5491 11.9344 12.5953 11.8727 12.6348C9.74214 13.9988 8.3335 16.3836 8.3335 19.0968C8.3335 23.3311 11.766 26.7635 16.0002 26.7635C20.2343 26.7635 23.6668 23.3311 23.6668 19.0968C23.6668 18.4038 23.5751 17.733 23.4032 17.0956C22.8963 17.6446 22.3367 18.1743 21.6648 18.6103C20.4339 19.4092 18.8934 19.8654 16.6668 19.8654C16.2104 19.8654 15.812 19.5564 15.6983 19.1144C15.5847 18.6726 15.7846 18.2096 16.1843 17.9895C17.0894 17.4908 17.8566 16.8814 18.4462 16.0476C19.0344 15.2158 19.4851 14.105 19.6742 12.5464C20.0832 9.17202 18.6867 5.84145 16.2284 4.33443Z" fill="#95FF84"/>
</svg>
