<svg width="32" height="32" viewBox="0 0 32 32" fill="none" xmlns="http://www.w3.org/2000/svg">
<path fill-rule="evenodd" clip-rule="evenodd" d="M18.1516 3.07994C18.5204 3.23698 18.7598 3.59913 18.7598 4.00002V13.3309H23.9998C24.3554 13.3309 24.6842 13.5197 24.8636 13.8269C25.0428 14.134 25.0454 14.5133 24.8705 14.8229L24.2144 15.984C21.7262 20.3876 18.553 24.3671 14.814 27.7731L13.7533 28.7393C13.4605 29.006 13.038 29.0748 12.6757 28.9148C12.3135 28.7547 12.0798 28.396 12.0798 28V18.7483H6.6665C6.11422 18.7483 5.6665 18.3005 5.6665 17.7483C5.6665 17.5693 5.71348 17.4015 5.79574 17.2561C8.1408 12.9209 11.1432 8.97492 14.6961 5.55861L17.0668 3.27918C17.3557 3.00133 17.7826 2.9229 18.1516 3.07994ZM8.37928 16.7483H13.0798C13.6321 16.7483 14.0798 17.1959 14.0798 17.7483V25.726C17.3046 22.6787 20.0688 19.1769 22.2844 15.3309H17.7598C17.2076 15.3309 16.7598 14.8832 16.7598 14.3309V6.34885L16.0824 7.00027C13.0813 9.88589 10.4903 13.1659 8.37928 16.7483Z" fill="#F5FF84"/>
</svg>
