<svg width="32" height="32" viewBox="0 0 32 32" fill="none" xmlns="http://www.w3.org/2000/svg">
<path fill-rule="evenodd" clip-rule="evenodd" d="M9.66652 9.66669V9.50685C9.66652 6.61653 11.6233 4.09287 14.4227 3.37307C15.4573 3.10701 16.5424 3.10701 17.5771 3.37307C20.3764 4.09287 22.3332 6.61653 22.3332 9.50686V9.66669H24.3347C25.0964 9.66669 25.7428 10.2253 25.8533 10.979L26.1448 12.9689C26.7189 16.8868 26.7189 20.8676 26.1448 24.7855C25.8676 26.6775 24.3419 28.1403 22.4399 28.3375L21.6013 28.4244C17.8771 28.8107 14.1227 28.8107 10.3983 28.4244L9.55986 28.3375C7.6578 28.1403 6.13208 26.6775 5.85486 24.7855C5.2808 20.8676 5.2808 16.8868 5.85486 12.9689L6.14643 10.979C6.25686 10.2253 6.90331 9.66669 7.66502 9.66669H9.66652ZM14.9207 5.31005C15.6287 5.12801 16.3711 5.12801 17.0791 5.31005C18.9943 5.80255 20.3332 7.52926 20.3332 9.50686V9.66669H11.6665V9.50685C11.6665 7.52926 13.0054 5.80255 14.9207 5.31005ZM9.66652 11.6667V14.6667C9.66652 15.219 10.1142 15.6667 10.6665 15.6667C11.2188 15.6667 11.6665 15.219 11.6665 14.6667V11.6667H20.3332V14.6667C20.3332 15.219 20.7809 15.6667 21.3332 15.6667C21.8855 15.6667 22.3332 15.219 22.3332 14.6667V11.6667H23.9327L24.166 13.2589C24.7119 16.9846 24.7119 20.7699 24.166 24.4956C24.0213 25.4824 23.2256 26.2454 22.2336 26.3482L21.3951 26.4352C17.8079 26.8072 14.1919 26.8072 10.6046 26.4352L9.76615 26.3482C8.7741 26.2454 7.97832 25.4824 7.83374 24.4956C7.28784 20.7699 7.28784 16.9846 7.83374 13.2589L8.06702 11.6667H9.66652Z" fill="#FF8484"/>
</svg>
