<svg width="24" height="25" viewBox="0 0 24 25" fill="none" xmlns="http://www.w3.org/2000/svg">
<path d="M8.46967 8.96967C8.76256 8.67678 9.23744 8.67678 9.53033 8.96967L12 11.4393L14.4697 8.96968C14.7626 8.67679 15.2374 8.67679 15.5303 8.96968C15.8232 9.26257 15.8232 9.73745 15.5303 10.0303L13.0607 12.5L15.5303 14.9697C15.8232 15.2626 15.8232 15.7374 15.5303 16.0303C15.2374 16.3232 14.7626 16.3232 14.4697 16.0303L12 13.5607L9.53034 16.0303C9.23744 16.3232 8.76257 16.3232 8.46968 16.0303C8.17678 15.7374 8.17678 15.2626 8.46968 14.9697L10.9393 12.5L8.46967 10.0303C8.17678 9.73744 8.17678 9.26256 8.46967 8.96967Z" fill="white"/>
<path fill-rule="evenodd" clip-rule="evenodd" d="M7.31649 4.26858C10.4041 3.9235 13.5955 3.9235 16.683 4.26858C18.5094 4.4727 19.9843 5.91135 20.1992 7.74831C20.5684 10.9052 20.5684 14.0944 20.1992 17.2513C19.9843 19.0883 18.5094 20.5269 16.683 20.7311C13.5955 21.0761 10.4041 21.0761 7.31649 20.7311C5.49011 20.5269 4.01521 19.0883 3.80036 17.2513C3.43113 14.0944 3.43113 10.9052 3.80036 7.74831C4.01521 5.91135 5.49011 4.4727 7.31649 4.26858ZM16.5164 5.7593C13.5396 5.42659 10.46 5.42659 7.4831 5.7593C6.33867 5.8872 5.42262 6.79045 5.29021 7.92256C4.93452 10.9637 4.93452 14.0359 5.29021 17.0771C5.42262 18.2092 6.33867 19.1124 7.4831 19.2403C10.46 19.573 13.5396 19.573 16.5164 19.2403C17.6609 19.1124 18.5769 18.2092 18.7093 17.0771C19.065 14.0359 19.065 10.9637 18.7093 7.92256C18.5769 6.79045 17.6609 5.8872 16.5164 5.7593Z" fill="white"/>
</svg>
