<svg width="96" height="24" viewBox="0 0 96 24" fill="none" xmlns="http://www.w3.org/2000/svg">
<path d="M2.54395 22.2602H23.064V1.74023H2.54395V22.2602ZM19.1144 10.0258H14.7784V5.68983H19.1144V10.0258ZM6.49275 5.68983H10.8312V13.9746H19.1144V18.3106H6.49275V5.68983ZM36.4264 1.74023C34.3971 1.74023 32.4134 2.34198 30.7262 3.46936C29.0389 4.59675 27.7239 6.19914 26.9473 8.07391C26.1708 9.94871 25.9676 12.0116 26.3635 14.0018C26.7594 15.9921 27.7365 17.8202 29.1714 19.2551C30.6063 20.6901 32.4344 21.6672 34.4247 22.0631C36.415 22.459 38.4779 22.2558 40.3527 21.4793C42.2275 20.7027 43.8298 19.3877 44.9572 17.7004C46.0846 16.0131 46.6864 14.0294 46.6864 12.0002C46.6832 9.28007 45.6012 6.67227 43.6777 4.74883C41.7543 2.82539 39.1465 1.74341 36.4264 1.74023ZM36.4264 18.3106C35.1783 18.3106 33.9582 17.9406 32.9204 17.2471C31.8828 16.5538 31.0739 15.5682 30.5963 14.4151C30.1187 13.2621 29.9937 11.9933 30.2372 10.7691C30.4807 9.54503 31.0817 8.42063 31.9642 7.53811C32.8468 6.65559 33.9712 6.05458 35.1952 5.81109C36.4193 5.5676 37.6881 5.69257 38.8412 6.17019C39.9943 6.6478 40.9799 7.45663 41.6732 8.49439C42.3667 9.53207 42.7368 10.7522 42.7368 12.0002C42.7342 13.6731 42.0685 15.2767 40.8856 16.4596C39.7028 17.6425 38.0992 18.3081 36.4264 18.3106ZM83.4016 1.74023C81.372 1.74008 79.3885 2.34168 77.7012 3.46897C76.0138 4.59626 74.6987 6.19859 73.922 8.07335C73.1453 9.94807 72.942 12.0111 73.3378 14.0014C73.7336 15.9917 74.7107 17.8199 76.1456 19.2549C77.5804 20.6898 79.4085 21.6671 81.3992 22.063C83.3888 22.459 85.452 22.2558 87.3272 21.4794C89.2016 20.7028 90.804 19.3878 91.9312 17.7005C93.0592 16.0132 93.6608 14.0295 93.6608 12.0002C93.6576 9.28023 92.576 6.67252 90.6528 4.74911C88.7296 2.8257 86.1216 1.74363 83.4016 1.74023ZM83.4016 18.3106C82.1536 18.3108 80.9336 17.9408 79.8955 17.2475C78.8576 16.5542 78.0487 15.5687 77.5709 14.4157C77.0932 13.2626 76.9681 11.9938 77.2115 10.7696C77.4549 9.54551 78.0559 8.42103 78.9384 7.53839C79.8208 6.65579 80.9456 6.0547 82.1696 5.81115C83.3936 5.56759 84.6624 5.69251 85.8152 6.17011C86.9688 6.64771 87.9544 7.45652 88.648 8.49431C89.3408 9.53207 89.7112 10.7522 89.7112 12.0002C89.7088 13.673 89.0432 15.2764 87.86 16.4593C86.6776 17.6422 85.0744 18.3079 83.4016 18.3106ZM59.9136 1.74023C57.8843 1.74023 55.9006 2.34198 54.2134 3.46936C52.5261 4.59675 51.2111 6.19914 50.4345 8.07391C49.658 9.94871 49.4548 12.0116 49.8507 14.0018C50.2466 15.9921 51.2237 17.8202 52.6586 19.2551C54.0935 20.6901 55.9216 21.6672 57.9119 22.0631C59.9021 22.459 61.9651 22.2558 63.8399 21.4793C65.7147 20.7027 67.317 19.3877 68.4444 17.7004C69.5718 16.0131 70.1736 14.0294 70.1736 12.0002C70.1704 9.28007 69.0884 6.67227 67.1649 4.74883C65.2415 2.82539 62.6337 1.74341 59.9136 1.74023ZM59.9136 18.3106C58.7507 18.3112 57.6104 17.9905 56.6183 17.3838C55.6263 16.7772 54.8211 15.9083 54.2917 14.873C53.7624 13.8376 53.5294 12.6761 53.6185 11.5167C53.7076 10.3573 54.1153 9.24503 54.7967 8.30271C55.478 7.36044 56.4065 6.62472 57.4796 6.1768C58.5527 5.72887 59.7287 5.58617 60.8777 5.76443C62.0268 5.94269 63.1043 6.43498 63.9912 7.18697C64.8782 7.93895 65.5401 8.92143 65.904 10.0258H59.9136V13.9746H65.904C65.4872 15.2349 64.6844 16.332 63.6091 17.1102C62.5339 17.8886 61.2409 18.3085 59.9136 18.3106Z" fill="#808080"/>
</svg>
