<svg width="133" height="40" viewBox="0 0 133 40" fill="none" xmlns="http://www.w3.org/2000/svg">
<path d="M23.4209 11.3898H25.4209V25.3098H31.4209V27.3098H23.4209V11.3898ZM37.6509 11.3898C38.8376 11.3898 39.9976 11.7417 40.9843 12.401C41.971 13.0603 42.7401 13.9973 43.1942 15.0937C43.6483 16.1901 43.7671 17.3965 43.5356 18.5603C43.3041 19.7242 42.7327 20.7933 41.8935 21.6324C41.0544 22.4716 39.9853 23.043 38.8214 23.2745C37.6576 23.506 36.4512 23.3872 35.3548 22.9331C34.2584 22.4789 33.3214 21.7099 32.6621 20.7232C32.0028 19.7365 31.6509 18.5765 31.6509 17.3898C31.6509 16.6019 31.8061 15.8216 32.1076 15.0937C32.4091 14.3657 32.8511 13.7043 33.4083 13.1472C33.9654 12.59 34.6268 12.148 35.3548 11.8465C36.0827 11.545 36.863 11.3898 37.6509 11.3898ZM37.6509 21.3898C38.442 21.3898 39.2154 21.1552 39.8732 20.7157C40.531 20.2761 41.0437 19.6514 41.3464 18.9205C41.6492 18.1896 41.7284 17.3854 41.574 16.6094C41.4197 15.8335 41.0387 15.1208 40.4793 14.5614C39.9199 14.002 39.2072 13.621 38.4313 13.4667C37.6553 13.3123 36.8511 13.3915 36.1202 13.6943C35.3893 13.997 34.7645 14.5097 34.325 15.1675C33.8855 15.8253 33.6509 16.5987 33.6509 17.3898C33.6562 18.4472 34.0799 19.4595 34.8295 20.2053C35.5791 20.9511 36.5935 21.3698 37.6509 21.3698V21.3898ZM33.6509 25.3298H41.6509V27.3298H33.6509V25.3298ZM59.2509 27.3298H57.2509V25.8998C55.9611 26.8026 54.4253 27.2878 52.8509 27.2898C51.5084 27.2988 50.1852 26.9698 49.0033 26.3331C47.8213 25.6963 46.8186 24.7724 46.0876 23.6464C45.3565 22.5204 44.9205 21.2285 44.8199 19.8897C44.7192 18.551 44.9571 17.2084 45.5116 15.9858C46.0661 14.7631 46.9194 13.6996 47.9928 12.8934C49.0663 12.0871 50.3254 11.5639 51.6541 11.3721C52.9829 11.1802 54.3386 11.3259 55.5962 11.7956C56.8539 12.2653 57.9732 13.0439 58.8509 14.0598L57.3809 15.3698C56.7133 14.6234 55.8696 14.056 54.9265 13.7193C53.9835 13.3825 52.9712 13.2871 51.9819 13.4418C50.9925 13.5965 50.0577 13.9964 49.2624 14.6049C48.4672 15.2135 47.8369 16.0113 47.4291 16.9259C47.0212 17.8404 46.8487 18.8424 46.9273 19.8407C47.0059 20.839 47.333 21.8017 47.879 22.6411C48.425 23.4805 49.1723 24.17 50.053 24.6466C50.9336 25.1232 51.9196 25.3718 52.9209 25.3698C53.7519 25.3715 54.5735 25.1937 55.3295 24.8485C56.0854 24.5033 56.7579 23.9989 57.3009 23.3698H51.9009V21.3698H59.2709L59.2509 27.3298ZM66.6109 11.4298C67.7976 11.4298 68.9576 11.7817 69.9443 12.441C70.931 13.1003 71.7001 14.0373 72.1542 15.1337C72.6083 16.2301 72.7271 17.4365 72.4956 18.6003C72.2641 19.7642 71.6927 20.8333 70.8535 21.6724C70.0144 22.5116 68.9453 23.083 67.7814 23.3145C66.6176 23.546 65.4112 23.4272 64.3148 22.9731C63.2184 22.5189 62.2814 21.7499 61.6221 20.7632C60.9628 19.7765 60.6109 18.6165 60.6109 17.4298C60.6056 16.6368 60.7576 15.8507 61.058 15.1168C61.3584 14.3829 61.8013 13.7158 62.3611 13.1542C62.9209 12.5925 63.5865 12.1474 64.3194 11.8445C65.0523 11.5417 65.8379 11.3871 66.6309 11.3898L66.6109 11.4298ZM66.6109 21.4298C67.402 21.4298 68.1754 21.1952 68.8332 20.7557C69.491 20.3161 70.0037 19.6914 70.3064 18.9605C70.6092 18.2296 70.6884 17.4254 70.534 16.6494C70.3797 15.8735 69.9987 15.1608 69.4393 14.6014C68.8799 14.042 68.1672 13.661 67.3913 13.5067C66.6153 13.3523 65.8111 13.4315 65.0802 13.7343C64.3493 14.037 63.7245 14.5497 63.285 15.2075C62.8455 15.8653 62.6109 16.6387 62.6109 17.4298C62.6267 18.4837 63.0578 19.4888 63.8106 20.2266C64.5633 20.9643 65.5769 21.3752 66.6309 21.3698L66.6109 21.4298ZM62.6109 25.3698H70.6109V27.3698H62.6109V25.3698ZM74.7409 11.3898H76.7409V27.2898H74.7409V11.3898ZM79.5109 11.3898H81.5109C81.6139 11.3789 81.7178 11.3789 81.8209 11.3898C82.6585 11.2989 83.5059 11.3855 84.3078 11.6438C85.1097 11.9022 85.8483 12.3265 86.4753 12.8892C87.1024 13.4519 87.6039 14.1404 87.9472 14.9098C88.2906 15.6792 88.468 16.5123 88.468 17.3548C88.468 18.1973 88.2906 19.0304 87.9472 19.7998C87.6039 20.5692 87.1024 21.2577 86.4753 21.8204C85.8483 22.3831 85.1097 22.8074 84.3078 23.0658C83.5059 23.3241 82.6585 23.4107 81.8209 23.3198H81.5109V27.3198H79.5109V11.3898ZM81.5109 13.3898V21.2998H81.8209C82.3858 21.375 82.9602 21.3287 83.5058 21.1638C84.0513 20.999 84.5553 20.7195 84.984 20.3441C85.4128 19.9687 85.7563 19.506 85.9917 18.987C86.2271 18.468 86.3489 17.9047 86.3489 17.3348C86.3489 16.7649 86.2271 16.2016 85.9917 15.6826C85.7563 15.1636 85.4128 14.7009 84.984 14.3255C84.5553 13.95 84.0513 13.6706 83.5058 13.5057C82.9602 13.3409 82.3858 13.2946 81.8209 13.3698C81.712 13.3811 81.6046 13.4046 81.5009 13.4398L81.5109 13.3898ZM95.9209 12.5398L94.4409 13.7098C94.1856 13.443 93.8594 13.2546 93.5007 13.1668C93.142 13.079 92.7657 13.0954 92.416 13.2141C92.0662 13.3327 91.7577 13.5487 91.5265 13.8367C91.2953 14.1247 91.1511 14.4727 91.1109 14.8398V14.9998C91.1109 15.8798 91.7209 16.4698 92.9109 16.5498C97.4909 16.8298 99.5909 18.9798 99.5909 21.8198V21.9998C99.4726 23.1238 99.034 24.1902 98.3272 25.0722C97.6204 25.9542 96.6751 26.6145 95.6039 26.9748C94.5326 27.335 93.3804 27.38 92.2843 27.1043C91.1882 26.8287 90.1943 26.244 89.4209 25.4198L90.9509 24.2398C91.307 24.6215 91.7419 24.9211 92.2254 25.118C92.7089 25.3148 93.2294 25.4042 93.7509 25.3798C94.7141 25.4306 95.6596 25.1073 96.39 24.4774C97.1205 23.8476 97.5794 22.9599 97.6709 21.9998V21.8598C97.6709 19.1898 95.0509 18.6998 92.7809 18.4798C90.6809 18.2798 89.1709 16.9698 89.1709 15.0798V14.9998C89.2449 14.0158 89.694 13.0978 90.4253 12.4354C91.1566 11.7729 92.1144 11.4165 93.1009 11.4398C93.6237 11.4244 94.1438 11.5187 94.6279 11.7168C95.1119 11.9149 95.549 12.2123 95.9109 12.5898L95.9209 12.5398ZM107.421 25.2598C109.911 25.2598 111.881 22.5698 111.881 19.2598V11.2598H113.881V19.2598C113.881 23.6598 111.001 27.2098 107.461 27.2098C103.921 27.2098 101.041 23.6598 101.041 19.2598V11.2598H103.041V19.2598C102.961 22.6198 104.931 25.3098 107.411 25.3098L107.421 25.2598ZM129.231 27.2598H127.231V17.3598L122.621 23.3598L118.011 17.3598V27.2898H116.011V11.3898L122.611 20.0798L129.211 11.3898L129.231 27.2598Z" fill="#808080"/>
<path d="M13.8204 9.00055C13.8204 7.55777 13.2473 6.17408 12.2271 5.15389C11.2069 4.13369 9.82321 3.56055 8.38043 3.56055C6.93765 3.56055 5.55397 4.13369 4.53377 5.15389C3.51357 6.17408 2.94043 7.55777 2.94043 9.00055V25.4505L7.42043 28.6605V36.4805H9.34043V28.6605L13.8204 25.4505V9.00055ZM11.9004 18.2005L9.34043 20.7605V18.3605L11.9004 15.8005V18.2005ZM4.90043 15.8005L7.46043 18.3605V20.7605L4.90043 18.2005V15.8005ZM11.9004 13.0805L8.38043 16.6005L4.86043 13.0005V10.6005L8.38043 14.1205L11.9004 10.6005V13.0805ZM8.38043 5.48055C9.15458 5.48397 9.90626 5.74108 10.5203 6.21248C11.1344 6.68388 11.577 7.34358 11.7804 8.09055L8.38043 11.4805L4.98043 8.09055C5.17637 7.33615 5.6158 6.6675 6.23056 6.18836C6.84532 5.70921 7.60102 5.44634 8.38043 5.44054V5.48055ZM4.86043 24.4805V20.8805L7.42043 23.4405V26.3005L4.86043 24.4805ZM9.34043 26.3105V23.4405L11.9004 20.8805V24.4705L9.34043 26.3105Z" fill="#808080"/>
</svg>
