<svg width="152" height="20" viewBox="0 0 152 20" fill="none" xmlns="http://www.w3.org/2000/svg">
<path d="M75.693 16.8734H70.573V3.18538H75.693V16.8734ZM71.073 16.3734H75.193V3.68538H71.073V16.3734ZM82.817 16.8734H77.8V3.18538H88.282C89.7836 3.06378 91.279 3.48535 92.496 4.37338C93.0199 4.85269 93.426 5.44657 93.6825 6.10867C93.9391 6.77078 94.0392 7.48321 93.975 8.19038C94.0498 9.41235 93.6609 10.6176 92.886 11.5654C91.969 12.6174 90.443 13.1594 88.351 13.1784C87.824 13.1924 83.875 13.1784 82.82 13.1784L82.817 16.8734ZM78.297 16.3734H82.317V12.6734H82.568C82.619 12.6734 87.746 12.6894 88.339 12.6734C90.288 12.6564 91.689 12.1734 92.508 11.2304C93.1978 10.3728 93.5404 9.28752 93.468 8.18937C93.5295 7.55574 93.4442 6.91647 93.2188 6.32112C92.9933 5.72577 92.6338 5.19035 92.168 4.75638C91.0396 3.94648 89.659 3.56631 88.275 3.68438H78.3L78.297 16.3734ZM87.22 10.1034H82.283V6.37737H87.253C87.6053 6.32869 87.9642 6.36982 88.2963 6.49691C88.6285 6.62401 88.9232 6.83295 89.153 7.10437C89.3615 7.45131 89.4598 7.85335 89.435 8.25737C89.4537 8.63247 89.3727 9.00585 89.2 9.33938C88.9629 9.62526 88.6562 9.84533 88.3094 9.97843C87.9627 10.1115 87.5875 10.1532 87.22 10.0994V10.1034ZM82.783 9.60338H87.22C88.04 9.60338 88.548 9.43238 88.773 9.08038C88.8969 8.82453 88.953 8.54113 88.936 8.25737C88.9579 7.95943 88.8933 7.66151 88.75 7.39937L88.744 7.39038C88.506 7.04038 88.033 6.87737 87.253 6.87737H82.783V9.60338ZM103.1 17.0754C98.61 17.0754 95.93 15.9604 94.909 13.6674C94.7419 13.2245 94.6285 12.7632 94.571 12.2934L94.527 12.0054H99.869L99.904 12.2154C99.9451 12.4286 100.036 12.6293 100.168 12.8014C100.379 13.0564 101.083 13.4844 103.419 13.4844C106.227 13.4844 106.227 12.9914 106.227 12.7264C106.227 12.2794 105.902 12.1264 103.612 11.8824L103.177 11.8414C102.315 11.7604 101.225 11.6574 100.727 11.6144C96.527 11.2344 94.652 9.92938 94.652 7.38438C94.652 4.71138 97.843 2.98438 102.782 2.98438C106.811 2.98438 109.407 4.04638 110.496 6.14338C110.754 6.63116 110.928 7.15936 111.009 7.70537L111.044 7.98637H105.696L105.674 7.76038C105.653 7.58376 105.578 7.41807 105.458 7.28638C105.258 7.01838 104.626 6.57538 102.664 6.57538C100.255 6.57538 99.923 6.88337 99.923 7.21537C99.923 7.65837 100.684 7.81538 103.123 8.07638C104.14 8.15938 105.775 8.32738 106.335 8.39538C109.856 8.77738 111.427 10.0504 111.427 12.5244C111.428 14.5994 109.983 17.0754 103.1 17.0754ZM95.111 12.5054C95.1611 12.8352 95.2473 13.1584 95.368 13.4694C96.298 15.5584 98.828 16.5754 103.1 16.5754C106.672 16.5754 110.931 15.8754 110.931 12.5244C110.931 10.3314 109.541 9.24537 106.282 8.89237C105.722 8.82437 104.097 8.65738 103.082 8.57338C100.482 8.29138 99.425 8.14137 99.425 7.21537C99.425 6.25737 100.564 6.07538 102.666 6.07538C104.327 6.07538 105.4 6.37538 105.855 6.98038C105.979 7.12943 106.073 7.30132 106.131 7.48637H110.465C110.378 7.09962 110.24 6.72607 110.055 6.37538C109.055 4.45638 106.612 3.48438 102.784 3.48438C98.149 3.48438 95.154 5.01538 95.154 7.38438C95.154 9.64438 96.835 10.7604 100.773 11.1164C101.273 11.1594 102.362 11.2624 103.226 11.3444L103.664 11.3854C105.791 11.6094 106.729 11.7494 106.729 12.7264C106.729 13.7784 105.516 13.9844 103.421 13.9844C101.483 13.9844 100.259 13.6934 99.786 13.1204C99.6402 12.9377 99.5302 12.729 99.462 12.5054H95.111ZM120.927 17.0584C115.707 17.0584 112.827 14.9474 112.827 11.1134V3.18538H117.879V11.1134C117.879 12.4284 119.056 13.1824 121.107 13.1824C123.067 13.1824 124.284 12.3954 124.284 11.1304V3.18538H129.284V11.5334C129.289 15.0444 126.24 17.0584 120.924 17.0584H120.927ZM113.327 3.68538V11.1134C113.327 15.8514 118.085 16.5584 120.927 16.5584C123.865 16.5584 128.792 15.9054 128.792 11.5334V3.68538H124.792V11.1304C124.792 12.6804 123.348 13.6824 121.115 13.6824C118.781 13.6824 117.387 12.7224 117.387 11.1134V3.68538H113.327ZM150.472 16.8734H145.704V10.6934L143 16.8734H138.841L136.165 10.7054V16.8734H131.38V3.18538H137.674L140.944 10.7324L144.372 3.18538H150.478L150.472 16.8734ZM146.204 16.3734H149.972V3.68538H144.69L140.928 11.9644L137.342 3.68538H131.876V16.3734H135.661V8.29938L139.161 16.3764H142.661L146.198 8.31137L146.204 16.3734ZM6.054 3.43538H1.5V16.6234H14.084V13.1124H6.054V3.43538ZM23.276 3.13538C17.463 3.13538 14.406 5.89038 14.406 9.93538C14.406 14.5054 17.615 16.8234 23.276 16.8234C29.508 16.8234 32.129 14.1354 32.129 9.93538C32.129 5.67038 29.172 3.13338 23.276 3.13338V3.13538ZM23.259 6.56238C23.6547 6.56052 24.0502 6.58356 24.443 6.63138L19.352 11.7224C19.1111 11.1775 18.9936 10.586 19.008 9.99038C19.008 7.92138 20.05 6.56037 23.259 6.56037V6.56238ZM23.276 13.4504C22.8947 13.4521 22.5137 13.4307 22.135 13.3864L27.235 8.28638C27.4669 8.82228 27.5779 9.40271 27.56 9.98638C27.56 11.9994 26.6 13.4484 23.276 13.4484V13.4504ZM41.152 11.6504H45.839C45.77 11.9757 45.6262 12.2804 45.419 12.5404C44.4473 13.332 43.2072 13.7172 41.958 13.6154C41.3292 13.6827 40.6934 13.614 40.0935 13.414C39.4936 13.2141 38.9436 12.8875 38.481 12.4564C38.0071 11.7613 37.782 10.9265 37.842 10.0874C37.7653 9.20812 38.0101 8.33089 38.531 7.61837C39.186 6.87837 40.295 6.55938 41.925 6.55938C42.9621 6.47351 43.9979 6.73986 44.865 7.31538C45.1383 7.53246 45.3426 7.82429 45.453 8.15538H49.8C49.7684 7.60985 49.6372 7.07471 49.413 6.57638C48.372 4.45938 45.952 3.19938 41.837 3.19938C38.258 3.19938 35.856 4.29138 34.529 5.93838C33.6526 7.12774 33.2027 8.57782 33.252 10.0544C33.1953 11.5644 33.6336 13.0515 34.5 14.2894C35.811 15.9894 38.146 16.8254 40.952 16.8254C42.8175 16.9555 44.6703 16.433 46.193 15.3474L46.311 16.6234H49.922V8.81138H41.152V11.6504ZM60.171 3.13238C54.359 3.13238 51.301 5.88737 51.301 9.93237C51.301 14.5024 54.509 16.8204 60.171 16.8204C66.404 16.8204 69.025 14.1324 69.025 9.93237C69.025 5.67037 66.068 3.13338 60.171 3.13338V3.13238ZM60.155 6.55938C60.5403 6.55824 60.9253 6.58028 61.308 6.62538L56.237 11.6994C56.0036 11.1605 55.89 10.5775 55.904 9.99038C55.9 7.92138 56.946 6.56037 60.155 6.56037V6.55938ZM60.171 13.4474C59.7796 13.4491 59.3885 13.4263 59 13.3794L64.117 8.26138C64.3577 8.80441 64.4729 9.3947 64.454 9.98838C64.456 11.9994 63.5 13.4484 60.171 13.4484V13.4474Z" fill="#808080"/>
</svg>
